<svg xmlns="http://www.w3.org/2000/svg" width="38.015" height="38.03" viewBox="0 0 38.015 38.03">
  <path id="Path_3" data-name="Path 3" d="M38.421,8.652H34.144A2.3,2.3,0,0,0,31.887,6.93,2.352,2.352,0,0,0,29.63,8.652H14.9A2.3,2.3,0,0,0,12.642,6.93a2.352,2.352,0,0,0-2.257,1.723H1.594a.594.594,0,0,0,0,1.188h8.85A2.3,2.3,0,0,0,12.7,11.563,2.352,2.352,0,0,0,14.959,9.84H29.69a2.3,2.3,0,0,0,2.257,1.723A2.352,2.352,0,0,0,34.2,9.84h4.217a.594.594,0,0,0,0-1.188ZM12.7,10.375a1.128,1.128,0,0,1-1.129-1.129A1.129,1.129,0,1,1,12.7,10.375Zm19.186,0a1.128,1.128,0,0,1-1.129-1.129,1.129,1.129,0,0,1,2.257,0A1.128,1.128,0,0,1,31.887,10.375ZM2.247,19.582a.643.643,0,0,0-.653,0,.565.565,0,0,0-.238.594c.653,4.4,2.257,6.89,3.623,8.256a14.58,14.58,0,0,1-.238-2.851A20.65,20.65,0,0,1,5.4,20.532,4.634,4.634,0,0,1,2.247,19.582Zm19.186,0a.643.643,0,0,0-.653,0,.565.565,0,0,0-.238.594c.653,4.4,2.257,6.89,3.623,8.256a14.581,14.581,0,0,1-.238-2.851,20.65,20.65,0,0,1,.653-5.049A4.733,4.733,0,0,1,21.433,19.582ZM10.5,6.455a3.482,3.482,0,0,1,4.336,0l2.495-4.574a.632.632,0,0,0-.119-.713.625.625,0,0,0-.772,0L12.642,3.9l-3.8-2.732a.625.625,0,0,0-.772,0,.632.632,0,0,0-.119.713Zm19.245,0a3.482,3.482,0,0,1,4.336,0L36.58,1.881a.632.632,0,0,0-.119-.713.623.623,0,0,0-.772,0l-3.8,2.673-3.8-2.732a.625.625,0,0,0-.772,0c-.238.178-.178.535-.059.772ZM12.7,12.751a3.785,3.785,0,0,1-2.376-.891c-1.782,3.089-4.455,8.494-4.455,13.78a17.659,17.659,0,0,0,6.415,13.246.844.844,0,0,0,.356.119A.844.844,0,0,0,13,38.886c6.771-5.227,9.385-14.612,2.079-27.086A3.532,3.532,0,0,1,12.7,12.751Zm.832,20.79a1.176,1.176,0,1,1-1.663-1.663,1.264,1.264,0,0,1,1.663,0A1.148,1.148,0,0,1,13.533,33.54Zm18.354-20.79a3.532,3.532,0,0,1-2.376-.95c-1.782,3.089-4.455,8.494-4.455,13.78a17.659,17.659,0,0,0,6.415,13.246.594.594,0,0,0,.713,0A17.659,17.659,0,0,0,38.6,25.581c0-5.227-2.435-10.454-4.4-13.78A3.081,3.081,0,0,1,31.887,12.751Zm.832,20.79a1.176,1.176,0,1,1-1.663-1.663,1.264,1.264,0,0,1,1.663,0A1.148,1.148,0,0,1,32.719,33.54Z" transform="translate(-1 -0.975)" fill="#0172c0"/>
</svg>
