<svg xmlns="http://www.w3.org/2000/svg" width="36.582" height="38" viewBox="0 0 36.582 38">
  <path id="Path_1" data-name="Path 1" d="M33.372,24.761a5.086,5.086,0,0,0-2.221.515,5.114,5.114,0,0,1-4.321,0,5.091,5.091,0,0,0-2.221-.515,5.147,5.147,0,0,0-2.222.515,5.19,5.19,0,0,1-2.151.479,5.246,5.246,0,0,1-2.163-.479,5.045,5.045,0,0,0-4.443,0,5.1,5.1,0,0,1-4.317,0A5.044,5.044,0,0,0,7.1,24.761a4.928,4.928,0,0,0-2.185.515,4.96,4.96,0,0,1-2.12.479V29.1a5,5,0,0,0,2.122-.48,4.973,4.973,0,0,1,4.406,0,5.322,5.322,0,0,0,1.808.443l-2.685,2.77a2.15,2.15,0,0,0-2.729.317L2.642,35.341a2.334,2.334,0,0,0,0,3.213,2.142,2.142,0,0,0,3.1,0l3.076-3.185A2.331,2.331,0,0,0,9.2,32.7l3.7-3.827a6.718,6.718,0,0,0,.732-.253,5.052,5.052,0,0,1,4.443,0,5.092,5.092,0,0,0,4.315,0,5.155,5.155,0,0,1,2.222-.515,5.1,5.1,0,0,1,2.221.515,5.106,5.106,0,0,0,4.321,0,5.1,5.1,0,0,1,2.221-.515,5.2,5.2,0,0,1,2.239.515,5.2,5.2,0,0,0,2.177.48v-3.35a5.205,5.205,0,0,1-2.178-.479A5.212,5.212,0,0,0,33.372,24.761Zm1.49-16.38,3.075-3.187a2.321,2.321,0,0,0,0-3.215,2.13,2.13,0,0,0-3.1,0L31.76,5.166a2.321,2.321,0,0,0-.3,2.817L27.64,11.951l-7.6-2.916a3.034,3.034,0,0,0-.644-.289,3.123,3.123,0,0,0-3.906,2.177l-2.334,8.132-.047.282H2.8v4.3a3.235,3.235,0,0,0,1.63-.37,6.123,6.123,0,0,1,5.367-.008,3.993,3.993,0,0,0,1.685.378,3.91,3.91,0,0,0,1.666-.37,6.331,6.331,0,0,1,2.707-.624,6.183,6.183,0,0,1,2.694.616,3.959,3.959,0,0,0,3.361.008,6.3,6.3,0,0,1,2.7-.624,6.136,6.136,0,0,1,2.69.616,4.025,4.025,0,0,0,1.69.378,3.949,3.949,0,0,0,1.673-.37,6.309,6.309,0,0,1,2.71-.624,2.308,2.308,0,0,0,1.42-.383A16.481,16.481,0,0,0,37.3,20.848c.8-.51,1.438-1.512-.306-1.512H21.883l4.668-4.614.592.234a1.449,1.449,0,0,0,1.864-.894,1.541,1.541,0,0,0-.322-1.543l3.607-3.751A2.129,2.129,0,0,0,34.861,8.38Zm-14.3,10.956h-.931l1.881-6.521,3.886,1.5ZM20.532,4.952l-.4.808a1.518,1.518,0,0,1-1.42.852h-.942a3.209,3.209,0,0,0,2.583,1.3,3.163,3.163,0,0,0,3.122-3.083v.194h-2.8Zm-1.821.864a.824.824,0,0,0,.741-.489l.392-.713c.148-.335.461-.388.828-.388h3.065A3.886,3.886,0,0,0,20.2,1.218a3.638,3.638,0,0,0-3.644,3.7c0,.334.035.9.122.9H18.71Z" transform="translate(-2.001 -1.218)" fill="#0172c0"/>
</svg>
